# xmcd
#
# Track frame offsets: 
#        151
#        16459
#        45666
#        64551
#        84687
#        105899
#        128692
#        158444
#        198177
#        222466
#
# Disc length: 3438 seconds
#
# Revision: 0
# Processed by: cddbd v1.5.2PL0 Copyright (c) Steve Scherf et al.
# Submitted via: ExactAudioCopy v1.0b3
#
DISCID=770d6c0a
DTITLE=Eric Clapton - Groovy Pink Shirt CD01
DYEAR=2001
DGENRE=Blues
TTITLE0=Key to the Highway 
TTITLE1=Reptile
TTITLE2=Got You On My Mind
TTITLE3=Tears in Heaven
TTITLE4=Layla (acoustic)
TTITLE5=Bell Bottom Blues
TTITLE6=Change the World
TTITLE7=River of Tears 
TTITLE8=Going Down Slow 
TTITLE9=She's Gone 
EXTD=
EXTT0=
EXTT1=
EXTT2=
EXTT3=
EXTT4=
EXTT5=
EXTT6=
EXTT7=
EXTT8=
EXTT9=
PLAYORDER=
